<?xml version="1.0" standalone="no"?><!DOCTYPE svg PUBLIC "-//W3C//DTD SVG 1.1//EN" "http://www.w3.org/Graphics/SVG/1.1/DTD/svg11.dtd"><svg class="icon" width="200px" height="200.00px" viewBox="0 0 1024 1024" version="1.1" xmlns="http://www.w3.org/2000/svg"><path fill="#333333" d="M320 473.6l384 0 0 76.8-384 0L320 473.6zM473.6 320l76.8 0 0 384-76.8 0L473.6 320zM512 128c-212.0704 0-384 171.9296-384 384s171.9296 384 384 384 384-171.9296 384-384S724.0704 128 512 128zM512 819.2c-169.6768 0-307.2-137.5232-307.2-307.2s137.5232-307.2 307.2-307.2 307.2 137.5232 307.2 307.2S681.6768 819.2 512 819.2z" /></svg>