<?xml version="1.0" standalone="no"?><!DOCTYPE svg PUBLIC "-//W3C//DTD SVG 1.1//EN" "http://www.w3.org/Graphics/SVG/1.1/DTD/svg11.dtd"><svg class="icon" width="200px" height="200.00px" viewBox="0 0 1024 1024" version="1.1" xmlns="http://www.w3.org/2000/svg"><path fill="#333333" d="M755.057778 476.757333l-688.355556-469.333333C53.646222-1.507556 36.721778-2.389333 22.727111 4.949333 8.760889 12.344889 0 26.851556 0 42.666667l0 938.666667c0 15.815111 8.760889 30.321778 22.727111 37.717333C28.984889 1022.350222 35.84 1024 42.666667 1024c8.419556 0 16.810667-2.503111 24.035556-7.424l688.355556-469.333333C766.72 539.306667 773.688889 526.108444 773.688889 512S766.72 484.693333 755.057778 476.757333zM85.333333 900.608 85.333333 123.392 655.274667 512 85.333333 900.608zM981.333333 0C957.781333 0 938.666667 19.086222 938.666667 42.666667l0 938.666667c0 23.552 19.114667 42.666667 42.666667 42.666667s42.666667-19.114667 42.666667-42.666667l0-938.666667C1024 19.086222 1004.885333 0 981.333333 0z" /></svg>