<?xml version="1.0" standalone="no"?><!DOCTYPE svg PUBLIC "-//W3C//DTD SVG 1.1//EN" "http://www.w3.org/Graphics/SVG/1.1/DTD/svg11.dtd"><svg class="icon" width="200px" height="200.00px" viewBox="0 0 1024 1024" version="1.1" xmlns="http://www.w3.org/2000/svg"><path fill="#333333" d="M34.8 511.5c0.6-264.4 214-476.5 476.6-476.2 265.1 0.2 476.4 214.7 476.1 476.7-0.3 264.3-213.8 475.8-476.3 476.1C248.5 988.3 34.3 774 34.8 511.5zM925.9 511.7c0.5-228.2-185.1-414.5-414.4-414.7-228.6-0.2-414.4 183.9-414.8 414.1-0.3 228.7 184 414.5 414.5 415C739.7 926.6 925.4 740.8 925.9 511.7zM560.8 511.5c-15.6-17-31-33.8-46.4-50.5-22.3-24.3-44.6-48.5-66.8-72.8-12.8-14-10.1-33.5 5.8-41.2 9.2-4.5 18.2-3.4 26.4 2.8 1.8 1.4 3.4 3 4.9 4.6 44.7 45.5 89.3 91.1 134 136.7 13.3 13.6 13.3 27.3-0.2 41-44.9 45.8-89.7 91.6-134.6 137.4-9 9.2-19.3 11.7-29.4 7.2-15.3-6.7-20.1-26.1-9.2-39 10.5-12.3 21.7-23.9 32.6-35.8 26.9-29.3 53.8-58.5 80.7-87.7C559.2 513.4 559.8 512.7 560.8 511.5z" /></svg>